<svg xmlns="http://www.w3.org/2000/svg" height="48" viewBox="0 -960 960 960" width="48">
  <path d="M479.5-592q32.5 0 54.5-22.113 22-22.112 22-53Q556-699 533.92-721T480-743q-32 0-53.5 22.08T405-667q0 30.84 21.5 52.92Q448-592 479.5-592Zm.5 225q-41.118 0-73.559-23.5Q374-414 359-454q-8 0-14.615.5-6.616.5-14.385.5-53.778 0-90.889-37.027T202-580.714Q202-603 211-625t26-42q-18-20-26-41.75t-8-44.536q0-54.072 37.615-91.893Q278.231-883 330.494-883q7.506 0 14.006.5t14.5.5q15-39 47.415-63t73.5-24Q521-969 554-945q33 24 48.474 63 7.526 0 13.526-.5t14-.5q52.824 0 90.412 37.779Q758-807.442 758-753.429 758-731 749.5-709q-8.5 22-25.5 42 17 20 25.5 41.879 8.5 21.88 8.5 44.442 0 53.52-37.588 90.6Q682.824-453 630-453q-8 0-13.923-.5T602-454q-15 40-47.75 63.5T480-367Zm0 331q0-85 31-159.5T596-324q54-54 128-85t160-31q0 86-31 160t-85.5 128Q713-98 639-67T480-36Zm0 0q0-85-31-159.5T363-324q-55-54-129-85T76-440q0 86 31 160t85 128q54 54 128 85t160 31Z" fill="white" />
</svg>
