<svg xmlns="http://www.w3.org/2000/svg" height="48" viewBox="0 -960 960 960" width="48">
    <path d="M65-36v-341l165-72.763v-130.57L435-685v-86h-80v-91h80v-80h91v80h80v91h-80v86l205 104.667v130.57L896-377v341H579v-131.431q0-39.294-30.105-69.432Q518.791-267 480.133-267t-68.896 30.406Q381-206.188 381-168.196V-36H65Zm414.824-366Q502-402 518.5-418.324q16.5-16.323 16.5-38.5Q535-478 518.676-495q-16.323-17-38.5-17Q458-512 441.5-495.176q-16.5 16.823-16.5 38Q425-435 441.324-418.5q16.323 16.5 38.5 16.5Z" fill="white" />
</svg>